<svg xmlns="http://www.w3.org/2000/svg" viewBox="0 0 135 135" width="16" height="16">
    <defs>
        <style>
            .cls-1 {
                fill: #2b2a29;
                fill-rule: evenodd;
            }
            @media (prefers-color-scheme: dark) {
                .cls-1 {
                    stroke: white;
                    fill: white;
                }
            }
        </style>
    </defs>
    <title>only_logo</title>
    <g id="Слой_2">
        <g id="Слой_1-2">
            <g id="Слой_1-3">
                <path class="cls-1"
                      d="M46.19,95.53c1.67-.45,3.43,2.46,4.14,3.63a30.31,30.31,0,0,1,2.07,3.9,80.72,80.72,0,0,1,3.71,10.24C57.7,119.18,61.45,133,53,135.42c-7,2-15-6.62-19.05-11.43a124.45,124.45,0,0,1-10.56-14.82c-9.2-15-16.9-31.87-20.82-49.05C0,48.51-1,36.28,1.33,24.54a37.78,37.78,0,0,1,2.83-8.61C9.63,4.28,20.25-2.68,33.21,1c9.25,2.61,14.44,7.94,21.56,13.87,3.44,2.86,6.72,5.92,10.26,8.66,2,1.52,4.37,3.23,6.87,3.54,3.49.42,7.12-2,9.77-4C87.15,18.92,92,15.1,98.6,12.81c7.32-2.55,17.76-2.15,24.17,2.55,3.52,2.58,5.64,6.87,7,10.94a56.53,56.53,0,0,1,2.54,16.59c0,5.54-12,6.09-12-.26.15-5.13.39-12.85-3.34-16.85-3.41-3.66-9.83-3.63-14.2-2-4.7,1.75-8.64,4.62-12.56,7.68-3.56,2.77-7.25,5.8-11.6,7.21-9.41,3.06-18.43-3.27-25.21-9.1-5.58-4.79-10.92-9.85-17.18-13.77-4.1-2.56-9.45-4.74-14.14-2.42-9.75,4.82-9.88,20.39-9.43,29.69C13.64,64.82,22,86.19,33,104.76a114,114,0,0,0,7.64,11c1.21,1.56,2.25,3.24,3.43,4.82.74,1,3.83,5.43,5.39,4.42.59-.38.39-1.54.3-2.11-.17-1.22-.45-2.42-.73-3.62-.81-3.5-1.71-7-2.5-10.5-.44-2-.8-4-1.08-6a34.4,34.4,0,0,1-.41-4.29c0-.93,0-2.61,1.13-2.91Zm31.23,11.25c1.32-.35,2.53,1.63,3.09,2.56A20.37,20.37,0,0,1,81.92,112a54,54,0,0,1,2.49,6.9c1.12,4.12,3.62,13.47-2.25,15.16-4.85,1.4-10.26-4.42-13.06-7.74a85,85,0,0,1-7.1-10c-6.18-10.06-11.35-21.41-14-32.95-1.78-7.82-2.43-16-.85-24a25.39,25.39,0,0,1,1.92-5.83c3.72-7.93,11-12.66,19.8-10.17,6.25,1.76,9.74,5.34,14.55,9.34,2.3,1.92,4.49,4,6.86,5.81a10.1,10.1,0,0,0,4.47,2.31c2.24.27,4.64-1.35,6.34-2.63,3.7-2.79,7-5.35,11.42-6.9,5-1.74,12.09-1.45,16.45,1.75,2.42,1.77,3.86,4.68,4.76,7.47a38,38,0,0,1,1.72,11.2c0,4.1-8.61,4.45-8.61-.18.1-3.34.27-8.49-2.16-11.09-2.21-2.37-6.4-2.32-9.21-1.27a31.62,31.62,0,0,0-8.34,5.1c-2.42,1.88-4.91,3.92-7.86,4.88C92.86,71.3,86.73,67,82.1,63.07c-3.72-3.2-7.3-6.58-11.48-9.2-2.65-1.66-6.15-3.12-9.2-1.61C55,55.42,55,65.8,55.26,71.89c.7,14.53,6.27,28.8,13.65,41.21a75.52,75.52,0,0,0,5.1,7.33c.8,1,1.51,2.18,2.3,3.24.37.49,2.44,3.4,3.23,2.89.24-.15.11-.92.08-1.14-.12-.81-.3-1.6-.49-2.4-.54-2.35-1.15-4.68-1.67-7-.3-1.32-.54-2.72-.73-4.06-.16-1.11-.85-4.72.69-5.14Z"/>
            </g>
        </g>
    </g>
</svg>
