<svg width="154" height="51" viewBox="0 0 154 51" fill="none" xmlns="http://www.w3.org/2000/svg">
<path d="M7.70002 0.193172C4.29013 1.01952 1.15808 4.72558 0.274032 8.93245C-0.130104 10.9107 -0.0795871 17.7218 0.375066 20.301C1.78954 28.3391 6.89175 39.0566 12.4234 45.7175C15.8585 49.8242 19.1926 51.1264 20.8092 48.9728C21.9711 47.4203 21.1881 42.1367 19.1926 37.9799C18.0813 35.576 16.9194 34.5994 16.6163 35.7262C16.4395 36.4023 16.8183 38.9565 17.6771 42.5123C18.738 47.0447 18.2581 47.22 15.3786 43.3887C12.7265 39.8079 11.5393 37.9298 9.74596 34.349C6.08348 27.0621 4.46694 20.8519 4.46694 14.1159C4.46694 8.30642 5.95719 5.17631 9.01347 4.57533C10.8321 4.22476 13.4337 5.60201 17.8287 9.35814C21.4659 12.4382 23.234 13.6401 24.8505 14.1159C27.7047 14.9673 29.4728 14.4414 33.3879 11.5367C36.5452 9.15781 38.0607 8.48171 40.1572 8.48171C43.2387 8.48171 44.2238 9.70871 44.4511 13.8655C44.5269 15.2428 44.6784 16.4948 44.7795 16.6701C45.1078 17.1959 46.6486 17.4714 47.6084 17.221C48.9471 16.8454 49.1492 16.1943 48.7703 13.4648C47.8863 6.77893 45.4615 4.22476 40.0056 4.22476C37.3787 4.22476 35.3075 4.95094 32.5796 6.80397C27.4774 10.2596 27.0733 10.4099 25.3052 9.50839C24.8 9.25798 23.133 7.98089 21.5922 6.67877C15.6817 1.69563 14.7219 1.04456 11.9434 0.343418C10.4279 -0.0572366 8.96295 -0.107318 7.70002 0.193172Z" fill="black"/>
<path d="M21.3393 16.3195C16.4896 18.6233 15.6308 26.6614 19.2428 35.7763C22.097 42.9881 27.1234 49.5488 29.7756 49.5488C30.0534 49.5488 30.5839 49.2984 30.9627 48.9728C31.5184 48.497 31.6195 48.1966 31.6195 47.1198C31.6195 44.791 30.3313 40.8345 29.1946 39.7077C28.159 38.681 28.0075 40.0833 28.8158 43.6892C29.0936 44.9913 29.2957 46.2684 29.2452 46.4938C29.1441 46.9946 26.5172 43.589 24.926 40.9097C19.9753 32.521 18.7124 21.3026 22.4759 19.3745C24.0672 18.5481 25.3806 19.1241 29.1946 22.2792C34.2969 26.5111 35.4335 26.6614 39.7527 23.6064C42.3543 21.7534 43.592 21.3277 45.0064 21.7283C46.3199 22.129 46.7745 22.9303 46.9261 25.0838C46.9766 26.0854 47.1534 27.037 47.2797 27.1872C47.6081 27.5879 49.3004 27.6129 49.7045 27.2123C50.1844 26.7365 50.0581 24.1573 49.4772 22.4295C48.7952 20.4262 47.7596 19.3494 45.9915 18.8236C43.4657 18.0974 40.9398 18.7985 37.9593 21.0272C36.4186 22.1791 35.4587 22.5797 34.7262 22.4044C34.4231 22.3293 32.8319 21.1273 31.1901 19.7501C27.6791 16.8454 26.1384 15.994 24.0672 15.8437C22.88 15.7436 22.3496 15.8187 21.3393 16.3195Z" fill="black"/>
<path d="M78.436 8.72V26H75.964V14.156C75.964 13.964 75.968 13.756 75.976 13.532C75.992 13.3 76.012 13.068 76.036 12.836L70.48 23.096C70.264 23.52 69.932 23.732 69.484 23.732H69.088C68.632 23.732 68.3 23.52 68.092 23.096L62.452 12.812C62.476 13.044 62.492 13.276 62.5 13.508C62.516 13.74 62.524 13.956 62.524 14.156V26H60.052V8.72H62.152C62.4 8.72 62.592 8.744 62.728 8.792C62.864 8.832 62.988 8.964 63.1 9.188L68.644 19.232C68.764 19.464 68.876 19.704 68.98 19.952C69.092 20.192 69.192 20.44 69.28 20.696C69.376 20.44 69.476 20.188 69.58 19.94C69.692 19.684 69.808 19.44 69.928 19.208L75.388 9.188C75.5 8.964 75.624 8.832 75.76 8.792C75.896 8.744 76.088 8.72 76.336 8.72H78.436ZM93.5566 23.732L93.5446 26H82.7686V8.72H93.5446V10.988H85.5886V16.196H91.9486V18.392H85.5886V23.732H93.5566ZM112.005 17.36C112.005 18.64 111.797 19.812 111.381 20.876C110.965 21.932 110.377 22.84 109.617 23.6C108.865 24.36 107.957 24.952 106.893 25.376C105.837 25.792 104.661 26 103.365 26H96.8367V8.72H103.365C104.661 8.72 105.837 8.932 106.893 9.356C107.957 9.772 108.865 10.36 109.617 11.12C110.377 11.88 110.965 12.792 111.381 13.856C111.797 14.912 112.005 16.08 112.005 17.36ZM109.137 17.36C109.137 16.368 109.001 15.476 108.729 14.684C108.465 13.892 108.081 13.224 107.577 12.68C107.081 12.136 106.477 11.72 105.765 11.432C105.053 11.136 104.253 10.988 103.365 10.988H99.6567V23.732H103.365C104.253 23.732 105.053 23.588 105.765 23.3C106.477 23.012 107.081 22.596 107.577 22.052C108.081 21.5 108.465 20.832 108.729 20.048C109.001 19.256 109.137 18.36 109.137 17.36ZM118.155 26H115.335V8.72H118.155V26ZM134.489 22.148C134.641 22.148 134.773 22.208 134.885 22.328L136.001 23.54C135.297 24.388 134.433 25.044 133.409 25.508C132.385 25.964 131.161 26.192 129.737 26.192C128.473 26.192 127.329 25.976 126.305 25.544C125.289 25.104 124.421 24.496 123.701 23.72C122.981 22.936 122.425 22.004 122.033 20.924C121.649 19.844 121.457 18.656 121.457 17.36C121.457 16.064 121.661 14.876 122.069 13.796C122.485 12.708 123.065 11.776 123.809 11C124.561 10.216 125.457 9.608 126.497 9.176C127.545 8.744 128.697 8.528 129.953 8.528C131.201 8.528 132.301 8.732 133.253 9.14C134.213 9.54 135.045 10.076 135.749 10.748L134.825 12.056C134.761 12.144 134.685 12.22 134.597 12.284C134.509 12.348 134.389 12.38 134.237 12.38C134.077 12.38 133.893 12.308 133.685 12.164C133.485 12.012 133.225 11.848 132.905 11.672C132.593 11.488 132.197 11.324 131.717 11.18C131.245 11.028 130.653 10.952 129.941 10.952C129.117 10.952 128.361 11.096 127.673 11.384C126.985 11.672 126.393 12.092 125.897 12.644C125.401 13.196 125.013 13.868 124.733 14.66C124.461 15.452 124.325 16.352 124.325 17.36C124.325 18.376 124.469 19.284 124.757 20.084C125.045 20.876 125.441 21.548 125.945 22.1C126.449 22.644 127.041 23.06 127.721 23.348C128.401 23.636 129.133 23.78 129.917 23.78C130.397 23.78 130.825 23.756 131.201 23.708C131.585 23.652 131.937 23.568 132.257 23.456C132.577 23.336 132.877 23.188 133.157 23.012C133.445 22.836 133.729 22.62 134.009 22.364C134.169 22.22 134.329 22.148 134.489 22.148ZM147.81 19.52L145.434 13.208C145.242 12.72 145.046 12.1 144.846 11.348C144.758 11.724 144.662 12.072 144.558 12.392C144.454 12.704 144.358 12.98 144.27 13.22L141.894 19.52H147.81ZM153.126 26H150.954C150.706 26 150.506 25.94 150.354 25.82C150.202 25.692 150.086 25.536 150.006 25.352L148.566 21.536H141.126L139.686 25.352C139.622 25.512 139.51 25.66 139.35 25.796C139.19 25.932 138.99 26 138.75 26H136.578L143.43 8.72H146.274L153.126 26Z" fill="#3C3C3C"/>
<path d="M57.436 33.72V51H54.964V39.156C54.964 38.964 54.968 38.756 54.976 38.532C54.992 38.3 55.012 38.068 55.036 37.836L49.48 48.096C49.264 48.52 48.932 48.732 48.484 48.732H48.088C47.632 48.732 47.3 48.52 47.092 48.096L41.452 37.812C41.476 38.044 41.492 38.276 41.5 38.508C41.516 38.74 41.524 38.956 41.524 39.156V51H39.052V33.72H41.152C41.4 33.72 41.592 33.744 41.728 33.792C41.864 33.832 41.988 33.964 42.1 34.188L47.644 44.232C47.764 44.464 47.876 44.704 47.98 44.952C48.092 45.192 48.192 45.44 48.28 45.696C48.376 45.44 48.476 45.188 48.58 44.94C48.692 44.684 48.808 44.44 48.928 44.208L54.388 34.188C54.5 33.964 54.624 33.832 54.76 33.792C54.896 33.744 55.088 33.72 55.336 33.72H57.436ZM72.5566 48.732L72.5446 51H61.7686V33.72H72.5446V35.988H64.5886V41.196H70.9486V43.392H64.5886V48.732H72.5566ZM90.1407 33.72V51H88.7127C88.4967 51 88.3127 50.964 88.1607 50.892C88.0087 50.812 87.8647 50.684 87.7287 50.508L78.2367 38.316C78.2607 38.548 78.2767 38.78 78.2847 39.012C78.3007 39.236 78.3087 39.444 78.3087 39.636V51H75.8367V33.72H77.3007C77.4207 33.72 77.5207 33.728 77.6007 33.744C77.6887 33.752 77.7687 33.772 77.8407 33.804C77.9127 33.836 77.9807 33.884 78.0447 33.948C78.1087 34.012 78.1767 34.092 78.2487 34.188L87.7527 46.392C87.7287 46.144 87.7087 45.9 87.6927 45.66C87.6847 45.42 87.6807 45.196 87.6807 44.988V33.72H90.1407ZM106.391 36.06H101.003V51H98.2066V36.06H92.8066V33.72H106.391V36.06ZM119.823 48.732L119.811 51H109.035V33.72H119.811V35.988H111.855V41.196H118.215V43.392H111.855V48.732H119.823Z" fill="#626AED"/>
</svg>
