<svg width="150" height="150" viewBox="0 0 150 150" fill="none" xmlns="http://www.w3.org/2000/svg">
<path d="M35.2325 23.5085C27.605 25.373 20.599 33.735 18.6215 43.227C17.7175 47.6905 17.8305 63.0585 18.8475 68.878C22.0115 87.0145 33.4245 111.196 45.798 126.225C53.482 135.491 60.94 138.429 64.556 133.57C67.155 130.067 65.4035 118.146 60.94 108.767C58.454 103.343 55.855 101.139 55.177 103.682C54.7815 105.207 55.629 110.97 57.55 118.993C59.923 129.22 58.8495 129.615 52.4085 120.971C46.476 112.891 43.8205 108.654 39.809 100.574C31.6165 84.133 28.0005 70.121 28.0005 54.9225C28.0005 41.8145 31.334 34.752 38.1705 33.396C42.2385 32.605 48.058 35.7125 57.889 44.1875C66.025 51.137 69.98 53.849 73.596 54.9225C79.9805 56.8435 83.9355 55.657 92.693 49.103C99.7555 43.7355 103.146 42.21 107.835 42.21C114.728 42.21 116.932 44.9785 117.44 54.3575C117.61 57.465 117.949 60.29 118.175 60.6855C118.909 61.872 122.356 62.4935 124.503 61.9285C127.497 61.081 127.949 59.612 127.102 53.4535C125.124 38.368 119.7 32.605 107.496 32.605C101.62 32.605 96.987 34.2435 90.885 38.4245C79.472 46.2215 78.568 46.5605 74.613 44.5265C73.483 43.9615 69.754 41.08 66.3075 38.142C53.0865 26.8985 50.9395 25.4295 44.7245 23.8475C41.3345 22.9435 38.0575 22.8305 35.2325 23.5085Z" fill="black"/>
<path d="M65.7425 59.8945C54.8945 65.0925 52.9735 83.229 61.053 103.795C67.4375 120.067 78.681 134.87 84.6135 134.87C85.235 134.87 86.4215 134.305 87.269 133.57C88.512 132.497 88.738 131.819 88.738 129.389C88.738 124.135 85.8565 115.208 83.314 112.665C80.9975 110.349 80.6585 113.513 82.4665 121.649C83.088 124.587 83.54 127.468 83.427 127.977C83.201 129.107 77.325 121.423 73.7655 115.377C62.6915 96.45 59.8665 71.138 68.285 66.7875C71.8445 64.923 74.7825 66.2225 83.314 73.3415C94.727 82.89 97.2695 83.229 106.931 76.336C112.751 72.155 115.519 71.1945 118.683 72.0985C121.621 73.0025 122.638 74.8105 122.977 79.6695C123.09 81.9295 123.486 84.0765 123.768 84.4155C124.503 85.3195 128.288 85.376 129.192 84.472C130.266 83.3985 129.983 77.579 128.684 73.6805C127.158 69.1605 124.842 66.731 120.887 65.5445C115.237 63.906 109.587 65.488 102.92 70.5165C99.473 73.1155 97.326 74.0195 95.6875 73.624C95.0095 73.4545 91.45 70.7425 87.7775 67.635C79.924 61.081 76.4775 59.16 71.8445 58.821C69.189 58.595 68.0025 58.7645 65.7425 59.8945Z" fill="black"/>
</svg>
